<svg viewBox="0 0 1024 1024" xmlns="http://www.w3.org/2000/svg" width="81" height="81"><path d="M639.545 937.188H344.178c-8.42 0-15.588-6.144-16.84-14.45L249.857 420.75c-.796-4.892.683-9.898 3.868-13.767s7.965-5.916 12.971-5.916h450.219c5.006 0 9.67 2.161 12.97 5.916s4.665 8.761 3.869 13.767l-77.369 501.988c-1.252 8.306-8.42 14.45-16.84 14.45zm-280.69-34.134h266.013L697.116 435.2h-410.51l72.25 467.854z"/><path d="M724.082 435.086H259.527c-32.313 0-58.71-26.282-58.71-58.71v-1.25c0-32.314 26.283-58.71 58.71-58.71h464.555c32.313 0 58.71 26.283 58.71 58.71v1.25c0 32.314-26.284 58.71-58.71 58.71zM259.527 350.55c-13.54 0-24.576 11.037-24.576 24.576v1.252c0 13.54 11.037 24.576 24.576 24.576h464.555c13.54 0 24.576-11.037 24.576-24.576v-1.252c0-13.54-11.037-24.576-24.576-24.576H259.527z"/><path d="M713.5 349.184c-7.964 0-15.018-5.575-16.725-13.653-11.264-54.5-59.62-93.98-115.143-93.98H400.725c-53.817 0-100.693 36.522-114.005 88.86-2.276 9.102-11.605 14.677-20.708 12.288-9.102-2.276-14.677-11.606-12.288-20.708 8.192-32.085 27.08-61.212 53.248-81.92 26.624-21.049 59.961-32.654 93.867-32.654h180.907c71.68 0 134.144 50.972 148.594 121.173 1.934 9.216-4.096 18.205-13.312 20.139-1.138.341-2.39.455-3.528.455zm-62.236 486.741H332.459c-9.444 0-17.067-7.623-17.067-17.066s7.623-17.067 17.067-17.067H651.15c9.444 0 17.067 7.623 17.067 17.067s-7.623 17.066-16.953 17.066zm45.739-305.834H286.72c-9.444 0-17.067-7.623-17.067-17.067s7.623-17.067 17.067-17.067h410.396c9.444 0 17.067 7.623 17.067 17.067s-7.737 17.067-17.18 17.067z"/><path d="M487.88 238.364c-9.444 0-17.068-7.623-17.068-17.066V128.34c0-6.713 3.869-12.743 9.9-15.473L633.286 42.78c8.533-3.982 18.66-.227 22.642 8.42 3.982 8.533.227 18.66-8.42 22.642l-142.563 65.536v82.034c0 9.33-7.623 16.952-17.067 16.952zm3.981 522.468c-45.397 0-82.375-36.978-82.375-82.375s36.978-82.375 82.375-82.375 82.375 36.978 82.375 82.375-36.977 82.375-82.375 82.375zm0-130.617c-26.624 0-48.241 21.618-48.241 48.242s21.617 48.242 48.241 48.242 48.242-21.618 48.242-48.242-21.618-48.242-48.242-48.242z"/></svg>