<svg viewBox="0 0 1024 1024" xmlns="http://www.w3.org/2000/svg" width="81" height="81"><path d="M678.146 766.506H328.232c-57.607 0-111.977-22.654-153.014-63.562-41.037-41.036-63.562-95.407-63.562-153.014 0-13.075 1.165-26.15 3.495-38.836-31.716-18.9-51.522-53.076-51.522-90.877 0-58.383 47.51-105.893 105.893-105.893 19.288 0 37.67 5.178 53.723 14.628 9.839-48.157 52.688-84.663 103.693-84.663 36.247 0 68.351 18.383 87.381 46.216 19.03-27.963 51.134-46.216 87.381-46.216s68.352 18.383 87.382 46.216c19.03-27.963 51.134-46.216 87.381-46.216 51.782 0 94.89 37.283 104.08 86.346 16.7-10.615 36.248-16.44 56.702-16.44 58.383 0 105.893 47.51 105.893 105.893 0 38.189-19.936 72.364-52.04 91.135a213.807 213.807 0 0 1 3.495 38.578c0 57.606-22.655 111.977-63.562 153.014-40.908 41.166-95.278 63.691-152.885 63.691zM169.522 353.16c-37.024 0-67.057 30.033-67.057 67.057 0 27.574 16.57 51.911 42.072 62.268 9.062 3.624 13.981 13.463 11.522 22.913-3.755 14.499-5.696 29.515-5.696 44.532 0 97.997 79.743 177.74 177.74 177.74h349.913c97.997 0 177.74-79.743 177.74-177.74 0-15.017-1.941-29.904-5.695-44.403-2.46-9.45 2.589-19.418 11.65-22.913 25.891-10.097 42.59-34.694 42.59-62.397 0-37.024-30.033-67.057-67.056-67.057-22.784 0-43.756 11.392-56.183 30.422-5.437 8.285-16.053 11.133-24.855 6.731l-3.884-1.941c-8.415-3.884-12.945-13.205-10.615-22.266a67.244 67.244 0 0 0 1.942-16.053c0-37.024-30.034-67.057-67.058-67.057s-67.057 30.033-67.057 67.057v1.942c.13 5.308-1.812 10.356-5.437 14.11-3.624 3.755-8.673 5.826-13.98 5.826h-2.072c-5.178 0-10.227-2.071-13.981-5.825-3.625-3.755-5.696-8.803-5.437-14.11v-2.072c0-37.024-30.033-67.057-67.057-67.057s-67.057 30.033-67.057 67.057v1.942c.13 5.178-1.813 10.356-5.437 14.11-3.625 3.754-8.674 5.826-13.981 5.826h-1.683c-5.308 0-10.227-2.072-13.981-5.826-3.625-3.754-5.696-8.803-5.437-14.11V349.924c0-37.024-30.034-67.057-67.057-67.057S259.88 312.9 259.88 349.924c0 5.696.776 11.392 2.2 16.958 2.33 8.933-2.071 18.383-10.356 22.396l-1.424.647c-8.803 4.272-19.418 1.424-24.726-6.732-12.427-18.77-33.399-30.033-56.053-30.033z"/><path d="M302.083 522.227c-7.25 0-14.24-4.013-17.477-11.004l-28.48-59.548c-4.66-9.71-.517-21.23 9.192-25.891 9.709-4.66 21.23-.518 25.89 9.191l28.48 59.549c4.66 9.709.518 21.23-9.191 25.89-2.848 1.166-5.696 1.813-8.414 1.813zm397.164 0c-2.848 0-5.696-.647-8.415-1.942-9.709-4.66-13.722-16.182-9.19-25.89l28.479-59.55c4.66-9.709 16.182-13.722 25.89-9.19 9.71 4.66 13.723 16.181 9.192 25.89l-28.48 59.549c-3.366 6.99-10.227 11.133-17.476 11.133zm-195.734-23.82c-10.745 0-19.418-8.673-19.418-19.418v-60.196c0-10.744 8.673-19.418 19.418-19.418s19.418 8.674 19.418 19.418v60.196c0 10.615-8.674 19.418-19.418 19.418z"/></svg>