<svg viewBox="0 0 1024 1024" xmlns="http://www.w3.org/2000/svg" width="81" height="81"><path d="m459.207 218.317-54.34-54.295a22.756 22.756 0 1 1 32.222-32.222l52.155 52.201V102.4a22.756 22.756 0 1 1 45.512 0v81.601l52.155-52.2a22.756 22.756 0 0 1 32.222 32.221l-54.34 54.295c172.168 14.336 288.54 100.124 288.54 238.615 0 157.741-215.267 441.912-341.333 441.912-126.066 0-341.333-284.17-341.333-441.912 0-138.445 116.372-224.28 288.54-238.615zM512 853.333c97.758 0 295.822-261.507 295.822-396.401 0-121.515-117.1-195.243-295.822-195.243s-295.822 73.728-295.822 195.243c0 134.894 198.064 396.401 295.822 396.401zM329.956 420.978a22.756 22.756 0 0 1 45.51 0v45.51a22.756 22.756 0 1 1-45.51 0v-45.51zm318.577 0a22.756 22.756 0 1 1 45.511 0v45.51a22.756 22.756 0 1 1-45.51 0v-45.51zM420.978 648.533a22.756 22.756 0 1 1 45.51 0v45.511a22.756 22.756 0 1 1-45.51 0v-45.51zm136.533 0a22.756 22.756 0 1 1 45.511 0v45.511a22.756 22.756 0 1 1-45.51 0v-45.51zm-68.267-227.555a22.756 22.756 0 1 1 45.512 0v45.51a22.756 22.756 0 1 1-45.512 0v-45.51z"/></svg>