<svg viewBox="0 0 1024 1024" xmlns="http://www.w3.org/2000/svg" width="81" height="81"><path d="M462.848 740.162c-33.132 0-66.143-9.709-94.784-28.763-55.585-37.137-83.62-101.216-76.702-175.976.728-7.646 2.67-15.049 5.826-21.967 27.67-60.074 74.516-99.639 131.921-111.168 21.603-4.37 37.137-22.816 37.623-44.904 1.335-62.988 28.52-123.427 74.516-165.904 24.03-22.209 52.308-38.957 83.984-49.88 33.739-11.65 70.633-16.384 109.833-14.078 17.476.971 34.224 5.583 49.88 13.35 46.604 23.423 83.134 55.099 108.62 94.3 23.302 35.923 36.288 77.307 37.623 119.784 2.548 85.683-41.992 165.418-116.023 208.26L543.069 720.258c-.85.485-1.82.97-2.67 1.213-24.394 12.5-51.094 18.69-77.551 18.69zM715.89 163.324c-59.347 0-110.805 18.811-149.883 54.856-38.837 35.802-61.653 86.775-62.866 139.932-.85 39.321-28.278 72.09-66.75 79.857-45.754 9.223-83.376 41.384-106.071 90.658-1.457 3.155-2.428 6.553-2.67 10.073-5.583 61.045 16.505 112.867 60.681 142.359 41.02 27.428 93.571 30.098 137.14 7.16.486-.243.85-.485 1.335-.607L797.082 531.54c62.502-36.044 100.003-103.4 97.94-175.612-2.306-77.065-48.303-143.572-126.218-182.651-11.165-5.583-23.18-8.86-35.802-9.588a411.153 411.153 0 0 0-17.112-.364zM309.445 537.122z"/><path d="M709.579 508.723c-6.311 0-12.38-3.277-15.777-9.102-4.976-8.738-2.063-19.782 6.675-24.88 61.41-35.437 84.832-112.867 53.278-176.218-4.49-8.981-.85-19.904 8.253-24.394 8.98-4.49 19.903-.85 24.394 8.252 39.928 80.585 10.194 178.89-67.72 223.915-2.792 1.578-5.948 2.427-9.103 2.427zM200.947 852.666c-27.671 0-54.614-14.321-69.42-39.929-6.675-11.408-10.194-24.03-10.68-37.015-11.044-6.918-20.146-16.263-26.7-27.792-22.088-38.23-8.86-87.26 29.249-109.227 17.476-10.073 38.108-13.229 57.769-8.738 13.956 3.155 26.7 9.952 36.894 19.66l82.041-47.331c8.738-4.976 19.782-2.063 24.88 6.675 4.976 8.738 2.063 19.782-6.675 24.88l-95.027 54.855a18.234 18.234 0 0 1-24.152-5.46c-12.743-18.57-38.108-24.273-57.647-12.987-20.753 12.015-27.914 38.715-15.899 59.59 4.855 8.374 12.015 14.684 20.875 18.447 7.524 3.155 12.136 11.044 11.044 19.175-1.214 9.466.728 18.933 5.461 27.307 12.015 20.753 38.715 27.913 59.59 15.898 19.175-11.044 26.942-34.71 18.204-54.977a18.17 18.17 0 0 1 7.646-22.938l99.396-57.404c8.738-4.976 19.782-2.064 24.88 6.675 4.975 8.738 2.062 19.782-6.676 24.879l-86.774 50.123c6.796 33.01-8.131 67.72-38.472 85.197-12.5 6.917-26.215 10.437-39.807 10.437z"/></svg>