<svg viewBox="0 0 1024 1024" xmlns="http://www.w3.org/2000/svg" width="81" height="81"><path d="M430.933 561.707a16.09 16.09 0 0 1-11.306-4.694c-6.294-6.293-6.294-16.426 0-22.613 26.453-26.453 26.453-69.547 0-96l-10.454-10.453c-19.52-19.52-29.866-45.334-29.226-72.854.64-27.52 12.16-52.906 32.533-71.466l29.227-26.667c6.506-5.973 16.64-5.44 22.613 1.067s5.44 16.64-1.067 22.613l-29.226 26.667c-13.867 12.586-21.654 29.866-22.08 48.533-.427 18.667 6.613 36.267 19.84 49.493l10.453 10.454c38.933 38.933 38.933 102.293 0 141.226a16.09 16.09 0 0 1-11.307 4.694zm-114.56 0a16.09 16.09 0 0 1-11.306-4.694c-6.294-6.293-6.294-16.426 0-22.613 26.453-26.453 26.453-69.547 0-96l-10.454-10.453c-19.52-19.52-29.866-45.334-29.226-72.854.64-27.52 12.16-52.906 32.533-71.466 6.507-5.974 16.64-5.44 22.613 1.066s5.44 16.64-1.066 22.614c-13.867 12.586-21.654 29.866-22.08 48.533s6.613 36.267 19.84 49.493l10.453 10.454c38.933 38.933 38.933 102.293 0 141.226a15.906 15.906 0 0 1-11.307 4.694zm225.6 0a16.09 16.09 0 0 1-11.306-4.694c-6.294-6.293-6.294-16.426 0-22.613 12.8-12.8 19.84-29.867 19.84-48s-7.04-35.2-19.84-48l-10.454-10.453c-19.52-19.52-29.866-45.334-29.226-72.854.64-27.52 12.16-52.906 32.533-71.466l55.573-50.667c6.507-5.973 16.64-5.44 22.614 1.067s5.44 16.64-1.067 22.613l-55.573 50.56c-13.867 12.587-21.654 29.867-22.08 48.533-.427 18.667 6.613 36.267 19.84 49.494l10.453 10.453c18.88 18.88 29.227 43.947 29.227 70.613s-10.347 51.734-29.227 70.614c-3.093 3.2-7.147 4.8-11.307 4.8z"/><path d="M210.133 312.64c-7.68 0-14.506-5.547-15.786-13.44-1.387-8.747 4.48-16.96 13.226-18.347L904 168.427c8.747-1.387 16.96 4.48 18.347 13.226 1.386 8.747-4.48 16.96-13.227 18.347L212.8 312.427c-.96.213-1.813.213-2.667.213zm305.174 68.907c-8.64 0-15.787-6.934-16-15.574-.214-8.853 6.72-16.213 15.573-16.426l386.56-10.134h.427c8.64 0 15.786 6.934 16 15.574.213 8.853-6.72 16.213-15.574 16.426l-386.56 10.134h-.426zm-292.694 7.68c-8.64 0-15.786-6.934-16-15.574-.213-8.853 6.72-16.213 15.574-16.426l55.893-1.494h.427c8.64 0 15.786 6.934 16 15.574.213 8.853-6.72 16.213-15.574 16.426l-55.893 1.494h-.427zM841.92 652.693H172.8c-8.853 0-16-7.146-16-16s7.147-16 16-16h669.227c8.853 0 16 7.147 16 16s-7.254 16-16.107 16z"/><path d="M574.613 876.48H440.96c-75.627 0-147.093-29.12-201.28-81.813-54.4-53.014-84.907-123.734-86.08-199.147V550.4c0-8.853 7.147-16 16-16h676.267c8.853 0 16 7.147 16 16v45.12c-1.174 75.413-31.68 146.133-85.974 199.147-54.186 52.693-125.653 81.813-201.28 81.813zM185.6 566.4v28.587c2.027 137.6 116.587 249.493 255.253 249.493h133.654c138.666 0 253.226-111.893 255.253-249.493V566.4H185.6z"/></svg>