<svg viewBox="0 0 1024 1024" xmlns="http://www.w3.org/2000/svg" width="81" height="81"><path d="M811.72 498.657v15.45c0 37.542-7.338 74.003-21.86 108.224-13.982 33.139-34.067 62.88-59.635 88.371s-55.31 45.576-88.372 59.635c-34.298 14.446-70.681 21.861-108.224 21.861H489.6c-37.543 0-74.004-7.338-108.225-21.86-33.139-13.983-62.88-34.067-88.371-59.636s-45.576-55.31-59.635-88.371c-14.523-34.298-21.861-70.682-21.861-108.224v-15.45H811.72m0-46.348H211.507c-25.57 0-46.349 20.78-46.349 46.348v15.45c0 179.214 145.226 324.44 324.44 324.44h44.031c179.215 0 324.44-145.226 324.44-324.44v-15.45c0-25.646-20.78-46.348-46.348-46.348z" fill="#2c2c2c"/><path d="M658.693 553.117H195.285c-6.412 0-11.587-5.176-11.587-11.587s5.175-11.587 11.587-11.587h463.408c6.412 0 11.587 5.175 11.587 11.587s-5.175 11.587-11.587 11.587zm177.67 0h-123.52c-6.41 0-11.586-5.176-11.586-11.587s5.175-11.587 11.587-11.587h123.519c6.411 0 11.587 5.175 11.587 11.587s-5.176 11.587-11.587 11.587zm-549.385 46.735h-88.063c-6.411 0-11.587-5.176-11.587-11.587s5.176-11.588 11.587-11.588h88.063c6.411 0 11.587 5.176 11.587 11.588s-5.176 11.587-11.587 11.587zm15.45 46.348h-88.063c-6.412 0-11.587-5.175-11.587-11.587s5.175-11.587 11.587-11.587h88.062c6.412 0 11.587 5.176 11.587 11.587S308.84 646.2 302.427 646.2zm15.449 46.349h-88.063c-6.411 0-11.587-5.176-11.587-11.587s5.176-11.587 11.587-11.587h88.063c6.411 0 11.587 5.175 11.587 11.587s-5.176 11.587-11.587 11.587zm30.899 46.348h-88.063c-6.411 0-11.587-5.175-11.587-11.587s5.176-11.587 11.587-11.587h88.063c6.411 0 11.587 5.176 11.587 11.587s-5.176 11.587-11.587 11.587zm54.073 46.349h-88.062c-6.412 0-11.587-5.176-11.587-11.587s5.175-11.587 11.587-11.587h88.062c6.412 0 11.587 5.175 11.587 11.587s-5.175 11.587-11.587 11.587zm78.252-350.704H365.23c-55.387 0-100.422-45.036-100.422-100.422 0-12.823 10.35-23.174 23.174-23.174h270.367c12.823 0 23.174 10.35 23.174 23.174 0 55.386-45.036 100.422-100.422 100.422zm-164.692-77.248c8.729 18.23 27.346 30.9 48.82 30.9h115.872c21.552 0 40.169-12.67 48.82-30.9H316.41z" fill="#2c2c2c"/><path d="M544.444 400.553a23.21 23.21 0 0 1-15.681-6.103c-9.424-8.651-10.042-23.328-1.39-32.753 2.703-2.935 5.33-6.18 8.11-9.578 13.441-16.609 30.281-37.311 83.428-62.185 61.875-28.89 207.332-50.442 213.512-51.37 12.669-1.853 24.41 6.876 26.264 19.544 1.854 12.669-6.875 24.41-19.543 26.264-1.468.232-144.84 21.475-200.535 47.508-43.49 20.316-55.464 35.07-66.974 49.361-3.09 3.785-6.257 7.725-9.888 11.742-4.789 5.02-11.046 7.57-17.303 7.57zM476.852 276.725c-11.278-9.733-14.368-32.29.541-45.267s4.635-38.083-2.086-44.109" fill="#2c2c2c"/><path d="M476.852 288.312c-2.703 0-5.407-.927-7.57-2.78-8.497-7.34-13.596-19.004-13.596-31.363s4.944-23.484 14.06-31.44c.85-.773 3.553-3.09 3.707-9.038.155-7.88-4.094-15.99-5.87-17.767-4.79-4.249-5.176-11.587-.85-16.377 4.249-4.789 11.587-5.175 16.376-.85 6.644 5.949 13.673 20.24 13.596 34.84-.077 10.814-4.094 20.007-11.664 26.573-5.099 4.403-6.18 10.042-6.103 13.904 0 5.485 2.163 10.892 5.562 13.827 4.866 4.172 5.407 11.51 1.236 16.377-2.395 2.704-5.64 4.094-8.884 4.094zM413.973 276.725c-11.278-9.733-14.368-32.29.54-45.267s4.635-38.083-2.085-44.109" fill="#2c2c2c"/><path d="M413.973 288.312c-2.704 0-5.408-.927-7.57-2.78-8.498-7.34-13.596-19.004-13.596-31.363s4.944-23.484 14.059-31.44c.85-.773 3.553-3.09 3.708-9.038.154-7.88-4.094-15.99-5.87-17.767-4.79-4.249-5.177-11.587-.85-16.377 4.248-4.789 11.586-5.175 16.376-.85 6.643 5.949 13.673 20.24 13.595 34.84-.077 10.814-4.094 20.007-11.664 26.573-5.098 4.403-6.18 10.042-6.103 13.904 0 5.485 2.163 10.892 5.562 13.827 4.867 4.172 5.408 11.51 1.236 16.377-2.394 2.704-5.639 4.094-8.883 4.094zM352.175 276.725c-11.278-9.733-14.368-32.29.54-45.267s4.635-38.083-2.085-44.109" fill="#2c2c2c"/><path d="M352.175 288.312c-2.704 0-5.408-.927-7.57-2.78-8.498-7.34-13.596-19.004-13.596-31.363s4.944-23.484 14.059-31.44c.85-.773 3.553-3.09 3.708-9.038.154-7.88-4.094-15.99-5.871-17.767-4.79-4.249-5.176-11.587-.85-16.377 4.249-4.789 11.587-5.175 16.377-.85 6.643 5.949 13.673 20.24 13.595 34.84-.077 10.814-4.094 20.007-11.664 26.573-5.098 4.403-6.18 10.042-6.103 13.904 0 5.485 2.163 10.892 5.562 13.827 4.867 4.172 5.408 11.51 1.236 16.377-2.395 2.704-5.639 4.094-8.883 4.094z" fill="#2c2c2c"/></svg>