<svg viewBox="0 0 1024 1024" xmlns="http://www.w3.org/2000/svg" width="81" height="81"><path d="M922.757 608.055H110.693c-10.745 0-19.418-8.674-19.418-19.418s8.673-19.418 19.418-19.418h812.193c10.745 0 19.419 8.673 19.419 19.418s-8.803 19.418-19.548 19.418z"/><path d="M598.346 879.649H436.14c-91.783 0-178.517-35.341-244.28-99.291-65.891-64.21-103.045-150.037-104.34-241.69v-54.76c0-10.744 8.674-19.418 19.419-19.418h820.737c10.745 0 19.418 8.674 19.418 19.419v54.758c-1.424 91.524-38.447 177.352-104.34 241.69-65.891 63.951-152.626 99.292-244.408 99.292zM126.228 503.327v34.693c2.589 166.996 141.493 302.793 309.912 302.793h162.206c168.29 0 307.323-135.797 309.783-302.793v-34.693H126.228z"/><path d="M152.377 500.867c-9.968 0-18.512-7.638-19.288-17.735-.389-4.013-.518-8.156-.518-12.169 0-78.837 64.209-143.046 143.046-143.046 4.531 0 9.062.259 13.464.647 9.19-70.035 69.257-124.276 141.88-124.276 27.445 0 54.113 7.767 77.155 22.525 16.7 10.745 31.07 24.855 41.943 41.167a122.011 122.011 0 0 1 47.122-9.45c47.25 0 89.97 27.444 110.294 68.869 13.334-4.402 27.444-6.732 41.555-6.732 73.012 0 132.302 59.42 132.302 132.302 0 7.767-.648 15.664-2.071 23.302-1.813 10.615-11.91 17.605-22.525 15.664-10.616-1.813-17.606-11.91-15.664-22.525.906-5.437 1.424-11.004 1.424-16.44 0-51.524-41.943-93.467-93.466-93.467-15.276 0-29.904 3.625-43.367 10.616a19.365 19.365 0 0 1-16.7.647c-5.437-2.33-9.45-6.861-11.003-12.557-10.227-35.859-43.497-60.973-80.78-60.973a84.32 84.32 0 0 0-44.531 12.687c-4.66 2.977-10.357 3.754-15.664 2.2s-9.71-5.307-12.04-10.227c-17.217-35.858-54.111-59.03-93.983-59.03-57.478 0-104.21 46.732-104.21 104.21 0 1.165 0 2.33.129 3.495.259 6.084-2.46 12.04-7.379 15.793-4.79 3.884-11.133 5.179-17.088 3.625-8.673-2.33-17.735-3.495-26.797-3.495-57.477 0-104.21 46.733-104.21 104.21 0 2.978.13 5.955.388 8.933.907 10.744-6.99 20.065-17.735 20.971-.647.259-1.165.259-1.683.259z"/><path d="M355.62 407.53a19.418 19.418 0 1 0 38.836 0 19.418 19.418 0 1 0-38.836 0zM509.023 390.054a19.418 19.418 0 1 0 38.836 0 19.418 19.418 0 1 0-38.836 0zM656.6 415.298a19.418 19.418 0 1 0 38.836 0 19.418 19.418 0 1 0-38.836 0zM409.99 312.382a19.418 19.418 0 1 0 38.837 0 19.418 19.418 0 1 0-38.837 0z"/></svg>